PathFileType	4	(X/Y/Z)	static.trc
DataRate	CameraRate	NumFrames	NumMarkers	Units	OrigDataRate	OrigDataStartFrame	OrigNumFrames
250.000000	250.000000	4	55	mm	250.000000	161	647
Frame#	Time	C7			RSH			LSH			MAN			T7			LARM			LELB			LFOREARM			LWR			RARM			RELB			RFOREARM			RWR			RASI			LASI			SACR			P1			P2			P3			LTHLP			LTHLD			LTHAP			LTHAD			LLEPI			LPAT			LMEPI			LTIAP			LTIAD			LTILAT			LLMAL			LMMAL			LHEEL			LMFS			LMFL			LP1MT			LTOE			LP5MT			RTHLP			RTHLD			RTHAP			RTHAD			RLEPI			RPAT			RMEPI			RTIAP			RTIAD			RTILAT			RLMAL			RMMAL			RHEEL			RMFS			RMFL			RP1MT			RTOE			RP5MT			
		X1	Y1	Z1	X2	Y2	Z2	X3	Y3	Z3	X4	Y4	Z4	X5	Y5	Z5	X6	Y6	Z6	X7	Y7	Z7	X8	Y8	Z8	X9	Y9	Z9	X10	Y10	Z10	X11	Y11	Z11	X12	Y12	Z12	X13	Y13	Z13	X14	Y14	Z14	X15	Y15	Z15	X16	Y16	Z16	X17	Y17	Z17	X18	Y18	Z18	X19	Y19	Z19	X20	Y20	Z20	X21	Y21	Z21	X22	Y22	Z22	X23	Y23	Z23	X24	Y24	Z24	X25	Y25	Z25	X26	Y26	Z26	X27	Y27	Z27	X28	Y28	Z28	X29	Y29	Z29	X30	Y30	Z30	X31	Y31	Z31	X32	Y32	Z32	X33	Y33	Z33	X34	Y34	Z34	X35	Y35	Z35	X36	Y36	Z36	X37	Y37	Z37	X38	Y38	Z38	X39	Y39	Z39	X40	Y40	Z40	X41	Y41	Z41	X42	Y42	Z42	X43	Y43	Z43	X44	Y44	Z44	X45	Y45	Z45	X46	Y46	Z46	X47	Y47	Z47	X48	Y48	Z48	X49	Y49	Z49	X50	Y50	Z50	X51	Y51	Z51	X52	Y52	Z52	X53	Y53	Z53	X54	Y54	Z54	X55	Y55	Z55	

162	0.644	-691.4926757812502	1567.660278320313	316.2085571289064	-651.412780761719	1558.121337890626	480.9539489746096	-689.4992675781252	1553.484497070313	161.7113189697266	-540.496765136719	1483.131958007813	313.2444458007814	-748.4114379882815	1373.913818359375	324.5087280273439	-711.1943359375002	1375.65625	45.46892166137697	-731.2001953125002	1250.921752929688	-11.0760669708252	-685.6894531250002	1142.721557617188	-98.43444824218756	-665.7622070312502	1018.668884277344	-159.6908111572266	-670.096862792969	1388.93798828125	592.521911621094	-699.7945556640627	1264.50634765625	657.4409179687502	-657.8171997070315	1154.787963867188	741.854431152344	-639.9145507812502	1032.897583007813	805.7546997070317	-533.1567993164065	1086.685668945313	404.9507751464846	-560.4283447265627	1091.259155273438	189.6988372802735	-730.5089111328127	1134.508544921875	324.394500732422	-751.6815185546877	1108.571166992188	273.3461914062501	-736.1616210937502	1104.1357421875	378.4850463867189	-775.8007812500005	1050.674682617188	327.2017517089845	-670.6348876953127	799.1035156250005	110.1729125976563	-666.620788574219	685.0120239257815	115.9874420166016	-537.184997558594	784.1698608398442	175.9583587646485	-558.0284423828127	675.2650146484377	182.4175872802735	-661.1274414062502	559.436462402344	125.7839736938477	-580.9851074218752	561.1926879882815	187.0592498779297	-660.951843261719	541.8772583007815	251.5094451904298	-644.6260986328127	381.8509521484376	190.2231140136719	-660.0994873046877	243.9341735839845	182.5144348144532	-696.272888183594	321.3621826171876	110.2611694335938	-701.6947021484377	102.7448959350587	122.1072463989258	-680.4277343750002	112.8594589233399	215.0414886474611	-765.5864868164065	61.17566680908206	166.5752105712891	-600.488708496094	94.60425567626956	169.7552032470704	-628.6975708007815	69.67006683349612	107.315902709961	-553.2872314453127	46.36902236938478	202.6616363525392	-497.7304382324221	58.56071853637698	164.0609741210938	-576.658874511719	35.96455001831056	78.63898468017581	-632.209167480469	824.995239257813	518.222595214844	-635.551208496094	711.3154296875002	512.6510009765627	-529.1175537109377	782.691040039063	427.4252929687502	-550.0913696289065	686.2508544921877	423.5328063964846	-653.0250244140627	559.5621337890627	492.9444885253909	-585.2832031250002	550.947692871094	429.1581726074221	-686.2214355468752	544.3215332031252	369.5951538085939	-658.875671386719	344.0318298339845	421.716979980469	-673.6189575195315	218.0167083740236	415.7531738281252	-694.2559204101565	338.1777648925782	508.5320739746096	-695.6480712890627	102.4451522827149	482.1558227539065	-684.6057128906252	112.9876022338868	388.3811950683596	-765.4558105468752	59.05267333984378	441.5921936035159	-592.6047363281252	98.05255889892584	432.3316955566409	-629.3406982421877	69.59163665771487	491.4077148437502	-554.403259277344	49.06315994262698	388.733825683594	-494.1982116699221	59.18009948730472	426.1820068359377	-569.862976074219	40.64856719970705	515.8889160156252	
163	0.648	-691.4302978515627	1567.613525390626	316.2810363769532	-651.4033203125002	1558.121704101563	480.9787902832034	-689.6790161132815	1553.628417968751	161.972396850586	-540.5538330078127	1483.149536132813	313.2416076660157	-748.405456542969	1373.932373046875	324.5852966308595	-711.2107543945315	1375.652954101563	45.43850326538087	-731.1917724609377	1251.002685546875	-11.3250093460083	-685.8057861328127	1142.752685546875	-98.27389526367193	-665.785583496094	1018.676879882813	-159.5816192626954	-670.1119384765627	1388.96435546875	592.513854980469	-699.8090820312502	1264.469360351563	657.436706542969	-657.777526855469	1154.844360351563	741.836364746094	-639.8920898437502	1032.90625	805.7226562500005	-533.1531982421877	1086.7197265625	404.9661865234377	-560.3245849609377	1091.2041015625	189.4743957519532	-730.521667480469	1134.542236328125	324.3717346191407	-751.6895141601565	1108.511596679688	273.3551025390626	-741.1771240234377	1104.832763671875	378.9909667968751	-775.8462524414067	1050.686645507813	327.1915588378907	-670.6650390625002	799.1032714843755	110.2013092041016	-666.581237792969	685.013610839844	116.0216064453126	-537.1520996093752	784.188354492188	175.815170288086	-558.0534667968752	675.2858886718752	182.4387359619141	-661.1265258789065	559.4177246093752	125.7798919677735	-580.955749511719	561.2236938476565	187.0692901611329	-660.9814453125002	541.888854980469	251.4927825927736	-644.641784667969	381.8753051757814	190.2801666259766	-660.0977783203127	243.9753265380861	182.5554351806641	-696.1563720703127	321.5086669921876	110.1348037719727	-701.7207031250002	102.7159423828126	122.1594161987305	-680.4825439453127	112.8438720703126	215.0089111328126	-765.4117431640627	61.26396179199222	166.4200134277344	-600.5000610351565	94.61093902587893	169.754867553711	-628.6434326171877	69.67868804931643	107.2442321777344	-553.2713623046877	46.3320655822754	202.726531982422	-497.7344360351565	58.64910888671878	164.0958557128907	-576.8193969726565	36.01792526245119	78.7421569824219	-632.1904296875002	824.9713745117192	518.2358398437502	-635.5302734375002	711.3211059570315	512.6911621093752	-529.161071777344	782.7053222656255	427.5052795410159	-550.0833129882815	686.2468261718752	423.5476989746096	-653.0520629882815	559.5212402343752	492.9108886718752	-585.3151855468752	550.9441528320315	429.1796569824221	-686.245300292969	544.3096923828127	369.638641357422	-658.8245239257815	343.9963684082032	421.8346862792971	-673.620544433594	217.9606170654298	415.7248229980471	-694.2598266601565	338.151336669922	508.5274353027346	-695.609069824219	102.4755935668946	482.2157897949221	-684.611755371094	112.9799194335938	388.4464111328127	-765.4399414062502	59.0949630737305	441.6604309082034	-592.6381835937502	98.03512573242193	432.3265686035159	-629.362731933594	69.5478210449219	491.3767700195315	-554.4078369140627	49.19475936889651	388.7140808105471	-494.148132324219	59.2228813171387	426.2685241699221	-569.8232421875002	40.67108535766603	515.941589355469	
164	0.652	-691.5594482421877	1567.572265625001	316.2833862304689	-651.4397583007815	1558.142700195313	481.0102539062502	-689.6480102539065	1553.529052734376	161.7369995117188	-540.5808105468752	1483.17236328125	313.3532104492189	-748.5278320312502	1373.948852539063	324.651580810547	-711.2786254882815	1375.632934570313	45.4659996032715	-731.331726074219	1251.025146484375	-11.29526042938233	-685.739440917969	1142.720825195313	-98.41960906982428	-665.7559204101565	1018.660766601563	-159.6693878173829	-670.1443481445315	1388.9765625	592.4781494140627	-699.7823486328127	1264.480102539063	657.4763183593752	-657.7751464843752	1154.841796875	741.8718261718752	-639.8800048828127	1032.923583984375	805.7478637695317	-533.190124511719	1086.731689453125	404.9911193847659	-560.4270019531252	1091.279174804688	189.6651916503907	-730.6184082031252	1134.50390625	324.3916015625001	-751.7351074218752	1108.548950195313	273.4193420410157	-736.358825683594	1104.058349609375	378.6183471679689	-775.8888549804692	1050.652221679688	327.180145263672	-670.6621704101565	799.0921020507817	110.2085418701172	-666.583923339844	685.0272216796877	115.9864044189454	-537.159118652344	784.202270507813	175.9962158203126	-558.0781860351565	675.2998657226565	182.4974212646485	-661.051208496094	559.473571777344	125.7649383544922	-580.948425292969	561.1842041015627	187.1264038085938	-660.9772949218752	541.8710937500002	251.4718627929689	-644.517517089844	381.8482360839845	190.0853881835938	-660.0988769531252	243.9370422363282	182.5021057128907	-696.237976074219	321.3191528320314	110.2363586425782	-701.686706542969	102.7499542236329	122.087745666504	-680.4763793945315	112.8658065795899	215.0249328613282	-765.5253906250002	61.21420669555667	166.578109741211	-600.3956298828127	94.67808532714847	169.5811767578126	-628.6503906250002	69.69590759277347	107.2878189086915	-553.272888183594	46.372371673584	202.7376861572267	-497.7647399902346	58.62994003295901	164.2124481201172	-576.7420043945315	35.98046493530275	78.6838073730469	-632.2128906250002	824.9939575195317	518.298034667969	-635.5526123046877	711.339538574219	512.7003173828127	-529.1447753906252	782.7092285156255	427.5308837890627	-550.1011352539065	686.239929199219	423.5222473144534	-653.0384521484377	559.5694580078127	493.0162048339846	-585.337829589844	550.9178466796877	429.1739196777346	-686.2785644531252	544.2937622070315	369.6866760253907	-658.8417968750002	344.1028442382814	421.7523193359377	-673.7250976562502	217.9026947021486	415.8273620605471	-694.2155761718752	338.1544799804689	508.5750427246096	-695.2689208984377	102.7311172485352	482.4560241699221	-684.8077392578127	112.9334106445313	388.6518249511721	-765.471618652344	59.03030776977542	441.6950683593752	-592.5838012695315	97.99291229248053	432.1737365722659	-629.3079223632815	69.62376403808597	491.4386291503909	-554.3996582031252	49.11614990234378	388.7575988769534	-494.1456298828127	59.23650360107425	426.3135070800784	-569.8356933593752	40.6588821411133	515.9376220703127	
165	0.656	-691.5937500000002	1567.581665039063	316.3089599609376	-651.484313964844	1558.116577148438	480.9480285644534	-689.7330322265627	1553.503295898438	161.8042297363282	-540.6232910156252	1483.220092773438	313.3833923339845	-748.473815917969	1373.888671875	324.6140441894532	-711.281188964844	1375.655883789063	45.44972610473634	-731.2318115234377	1250.94873046875	-11.15247440338135	-685.8445434570315	1142.744262695313	-98.23013305664068	-665.793395996094	1018.659973144532	-159.5701904296876	-670.1867675781252	1389.029174804688	592.4978637695315	-699.857849121094	1264.452514648438	657.4715576171877	-657.7520751953127	1154.860473632813	741.8384399414065	-639.861511230469	1032.949340820313	805.7697753906255	-533.2197875976565	1086.734008789063	405.0425415039065	-560.4458618164065	1091.177612304688	189.5307006835938	-730.5842285156252	1134.490112304688	324.4687500000001	-751.766296386719	1108.585205078125	273.4418334960939	-736.3867797851565	1104.096313476563	378.5826416015626	-775.9132690429692	1050.66845703125	327.2291259765626	-670.665222167969	799.0889282226567	110.2155380249024	-666.5936279296877	685.0142822265627	116.0630340576172	-537.124206542969	784.1772460937505	175.8655395507813	-558.0401611328127	675.308532714844	182.5573272705079	-660.927429199219	559.4158935546877	125.5624618530274	-580.931579589844	561.197692871094	187.1168212890626	-660.9563598632815	541.8715820312502	251.5291137695314	-644.604675292969	381.8144531250001	190.1978454589844	-660.108093261719	243.9395294189454	182.5782470703126	-696.2495727539065	321.3302307128907	110.2393341064454	-701.719909667969	102.7442932128907	122.097526550293	-680.4636230468752	112.8568496704102	215.0287017822267	-765.5291137695315	61.17092132568362	166.5758972167969	-600.4713134765627	94.61885833740237	169.6920623779297	-628.6033325195315	69.74991607666018	107.2363815307618	-553.2821044921877	46.38198089599611	202.7388305664064	-497.7875976562502	58.63201141357425	164.1875915527344	-576.7546386718752	35.998104095459	78.70684814453128	-632.2355957031252	824.973754882813	518.2547607421877	-635.5398559570315	711.347351074219	512.7233886718752	-529.1575927734377	782.738403320313	427.5117187500002	-550.1115722656252	686.2490234375002	423.4953918457034	-653.0781250000002	559.587341308594	492.960144042969	-585.3088989257815	550.935974121094	429.1974182128909	-686.2507934570315	544.3135375976565	369.6938781738282	-658.8369140625002	344.0366821289064	421.8080139160159	-673.6334228515627	217.9585418701173	415.7380371093752	-694.204040527344	338.1435852050782	508.5938415527346	-695.5942993164065	102.4683303833008	482.2131042480471	-684.5349731445315	112.9910430908204	388.3354797363284	-765.4304809570315	59.12195205688479	441.6418457031252	-592.578308105469	98.04702758789068	432.3954772949221	-629.3298339843752	69.59352874755862	491.4328613281252	-554.3743286132815	49.06129455566409	388.709411621094	-494.1606750488284	59.23233795166018	426.2988586425784	-569.8247070312502	40.67169189453126	515.9501953125002	
